<svg xmlns="http://www.w3.org/2000/svg" xmlns:xlink="http://www.w3.org/1999/xlink" style="display:none">
            
            <symbol id="github" viewBox="0 0 128 128">
            <g fill="#181616"><path fill-rule="evenodd" clip-rule="evenodd" d="M64 5.103c-33.347 0-60.388 27.035-60.388 60.388 0 26.682 17.303 49.317 41.297 57.303 3.017.56 4.125-1.31 4.125-2.905 0-1.44-.056-6.197-.082-11.243-16.8 3.653-20.345-7.125-20.345-7.125-2.747-6.98-6.705-8.836-6.705-8.836-5.48-3.748.413-3.67.413-3.67 6.063.425 9.257 6.223 9.257 6.223 5.386 9.23 14.127 6.562 17.573 5.02.542-3.903 2.107-6.568 3.834-8.076-13.413-1.525-27.514-6.704-27.514-29.843 0-6.593 2.36-11.98 6.223-16.21-.628-1.52-2.695-7.662.584-15.98 0 0 5.07-1.623 16.61 6.19C53.7 35 58.867 34.327 64 34.304c5.13.023 10.3.694 15.127 2.033 11.526-7.813 16.59-6.19 16.59-6.19 3.287 8.317 1.22 14.46.593 15.98 3.872 4.23 6.215 9.617 6.215 16.21 0 23.194-14.127 28.3-27.574 29.796 2.167 1.874 4.097 5.55 4.097 11.183 0 8.08-.07 14.583-.07 16.572 0 1.607 1.088 3.49 4.148 2.897 23.98-7.994 41.263-30.622 41.263-57.294C124.388 32.14 97.35 5.104 64 5.104z"></path><path d="M26.484 91.806c-.133.3-.605.39-1.035.185-.44-.196-.685-.605-.543-.906.13-.31.603-.395 1.04-.188.44.197.69.61.537.91zm2.446 2.729c-.287.267-.85.143-1.232-.28-.396-.42-.47-.983-.177-1.254.298-.266.844-.14 1.24.28.394.426.472.984.17 1.255zM31.312 98.012c-.37.258-.976.017-1.35-.52-.37-.538-.37-1.183.01-1.44.373-.258.97-.025 1.35.507.368.545.368 1.19-.01 1.452zm3.261 3.361c-.33.365-1.036.267-1.552-.23-.527-.487-.674-1.18-.343-1.544.336-.366 1.045-.264 1.564.23.527.486.686 1.18.333 1.543zm4.5 1.951c-.147.473-.825.688-1.51.486-.683-.207-1.13-.76-.99-1.238.14-.477.823-.7 1.512-.485.683.206 1.13.756.988 1.237zm4.943.361c.017.498-.563.91-1.28.92-.723.017-1.308-.387-1.315-.877 0-.503.568-.91 1.29-.924.717-.013 1.306.387 1.306.88zm4.598-.782c.086.485-.413.984-1.126 1.117-.7.13-1.35-.172-1.44-.653-.086-.498.422-.997 1.122-1.126.714-.123 1.354.17 1.444.663zm0 0"></path></g>
            </symbol>
            
            <symbol id="linkedin" viewBox="0 0 128 128">
            <path fill="#0076b2" d="M116 3H12a8.91 8.91 0 00-9 8.8v104.42a8.91 8.91 0 009 8.78h104a8.93 8.93 0 009-8.81V11.77A8.93 8.93 0 00116 3z"></path><path fill="#fff" d="M21.06 48.73h18.11V107H21.06zm9.06-29a10.5 10.5 0 11-10.5 10.49 10.5 10.5 0 0110.5-10.49M50.53 48.73h17.36v8h.24c2.42-4.58 8.32-9.41 17.13-9.41C103.6 47.28 107 59.35 107 75v32H88.89V78.65c0-6.75-.12-15.44-9.41-15.44s-10.87 7.36-10.87 15V107H50.53z"></path>
            </symbol>

            
            <symbol id="twitter" viewBox="0 0 158 158">
            <path d="M75.916 54.2 122.542 0h-11.05L71.008 47.06 38.672 0H1.376l48.898 71.164L1.376 128h11.05L55.18 78.303 89.328 128h37.296L75.913 54.2ZM60.782 71.79l-4.955-7.086-39.42-56.386h16.972L65.19 53.824l4.954 7.086 41.353 59.15h-16.97L60.782 71.793Z" fill="#000" style="stroke-width:.104373"></path>
            </symbol>
          
          <symbol id="react" viewBox="0 0 569 512">
            <g fill="none" fill-rule="evenodd">
            <g transform="translate(-227, -256)" fill="#58C4DC" fill-rule="nonzero">
                <g transform="translate(227, 256)">
                <path d="M285.5,201 C255.400481,201 231,225.400481 231,255.5 C231,285.599519 255.400481,310 285.5,310 C315.599519,310 340,285.599519 340,255.5 C340,225.400481 315.599519,201 285.5,201" id="Path"></path>
                <path d="M568.959856,255.99437 C568.959856,213.207656 529.337802,175.68144 466.251623,150.985214 C467.094645,145.423543 467.85738,139.922107 468.399323,134.521063 C474.621631,73.0415145 459.808523,28.6686204 426.709856,9.5541429 C389.677085,-11.8291748 337.36955,3.69129898 284.479928,46.0162134 C231.590306,3.69129898 179.282771,-11.8291748 142.25,9.5541429 C109.151333,28.6686204 94.3382249,73.0415145 100.560533,134.521063 C101.102476,139.922107 101.845139,145.443621 102.708233,151.02537 C97.4493791,153.033193 92.2908847,155.161486 87.3331099,157.39017 C31.0111824,182.708821 0,217.765415 0,255.99437 C0,298.781084 39.6220545,336.307301 102.708233,361.003527 C101.845139,366.565197 101.102476,372.066633 100.560533,377.467678 C94.3382249,438.947226 109.151333,483.32012 142.25,502.434597 C153.629683,508.887578 166.52439,512.186771 179.603923,511.991836 C210.956328,511.991836 247.567589,495.487529 284.479928,465.972527 C321.372196,495.487529 358.003528,511.991836 389.396077,511.991836 C402.475265,512.183856 415.36922,508.884856 426.75,502.434597 C459.848667,483.32012 474.661775,438.947226 468.439467,377.467678 C467.897524,372.066633 467.134789,366.565197 466.291767,361.003527 C529.377946,336.347457 569,298.761006 569,255.99437 M389.155214,27.1025182 C397.565154,26.899606 405.877839,28.9368502 413.241569,33.0055186 C436.223966,46.2772304 446.540955,82.2775015 441.522965,131.770345 C441.181741,135.143488 440.780302,138.556788 440.298575,141.990165 C414.066922,134.08804 387.205771,128.452154 360.010724,125.144528 C343.525021,103.224055 325.192524,82.7564475 305.214266,63.9661533 C336.586743,39.7116483 366.032313,27.1025182 389.135142,27.1025182 M378.356498,310.205598 C368.204912,327.830733 357.150626,344.919965 345.237759,361.405091 C325.045049,363.479997 304.758818,364.51205 284.459856,364.497299 C264.167589,364.51136 243.888075,363.479308 223.702025,361.405091 C211.820914,344.919381 200.80007,327.83006 190.683646,310.205598 C180.532593,292.629285 171.306974,274.534187 163.044553,255.99437 C171.306974,237.454554 180.532593,219.359455 190.683646,201.783142 C200.784121,184.229367 211.770999,167.201087 223.601665,150.764353 C243.824636,148.63809 264.145559,147.579168 284.479928,147.591877 C304.772146,147.579725 325.051559,148.611772 345.237759,150.68404 C357.109048,167.14607 368.136094,184.201112 378.27621,201.783142 C388.419418,219.363718 397.644825,237.458403 405.915303,255.99437 C397.644825,274.530337 388.419418,292.625022 378.27621,310.205598 M419.724813,290.127366 C426.09516,307.503536 431.324985,325.277083 435.380944,343.334682 C417.779633,348.823635 399.836793,353.149774 381.668372,356.285142 C388.573127,345.871232 395.263781,335.035679 401.740334,323.778483 C408.143291,312.655143 414.144807,301.431411 419.805101,290.207679 M246.363271,390.377981 C258.848032,391.140954 271.593728,391.582675 284.5,391.582675 C297.406272,391.582675 310.232256,391.140954 322.737089,390.377981 C310.880643,404.583418 298.10766,417.997563 284.5,430.534446 C270.921643,417.999548 258.18192,404.585125 246.363271,390.377981 Z M187.311556,356.244986 C169.137286,353.123646 151.187726,348.810918 133.578912,343.334682 C137.618549,325.305649 142.828222,307.559058 149.174827,290.207679 C154.754833,301.431411 160.736278,312.655143 167.239594,323.778483 C173.74291,334.901824 180.467017,345.864539 187.311556,356.285142 M149.174827,221.760984 C142.850954,204.473938 137.654787,186.794745 133.619056,168.834762 C151.18418,163.352378 169.085653,159.013101 187.211197,155.844146 C180.346585,166.224592 173.622478,176.986525 167.139234,188.210257 C160.65599,199.433989 154.734761,210.517173 149.074467,221.760984 M322.616657,121.590681 C310.131896,120.827708 297.3862,120.385987 284.379568,120.385987 C271.479987,120.385987 258.767744,120.787552 246.242839,121.590681 C258.061488,107.383537 270.801211,93.9691137 284.379568,81.4342157 C297.99241,93.9658277 310.765727,107.380324 322.616657,121.590681 Z M401.70019,188.210257 C395.196875,176.939676 388.472767,166.09743 381.527868,155.68352 C399.744224,158.819049 417.734224,163.151949 435.380944,168.654058 C431.331963,186.680673 426.122466,204.426664 419.785029,221.781062 C414.205023,210.55733 408.203506,199.333598 401.720262,188.230335 M127.517179,131.790423 C122.438973,82.3176579 132.816178,46.2973086 155.778503,33.0255968 C163.144699,28.9632474 171.455651,26.9264282 179.864858,27.1225964 C202.967687,27.1225964 232.413257,39.7317265 263.785734,63.9862316 C243.794133,82.7898734 225.448298,103.270812 208.949132,125.204763 C181.761691,128.528025 154.90355,134.14313 128.661281,141.990165 C128.199626,138.556788 127.778115,135.163566 127.456963,131.790423 M98.4529773,182.106474 C101.54406,180.767925 104.695358,179.429376 107.906872,178.090828 C114.220532,204.735668 122.781793,230.7969 133.498624,255.99437 C122.761529,281.241316 114.193296,307.357063 107.8868,334.058539 C56.7434387,313.076786 27.0971497,284.003505 27.0971497,255.99437 C27.0971497,229.450947 53.1907013,202.526037 98.4529773,182.106474 Z M155.778503,478.963143 C132.816178,465.691432 122.438973,429.671082 127.517179,380.198317 C127.838331,376.825174 128.259842,373.431953 128.721497,369.978497 C154.953686,377.878517 181.814655,383.514365 209.009348,386.824134 C225.500295,408.752719 243.832321,429.233234 263.805806,448.042665 C220.069,481.834331 180.105722,492.97775 155.838719,478.963143 M441.502893,380.198317 C446.520883,429.691161 436.203894,465.691432 413.221497,478.963143 C388.974566,493.017906 348.991216,481.834331 305.274481,448.042665 C325.241364,429.232737 343.566681,408.752215 360.050868,386.824134 C387.245915,383.516508 414.107066,377.880622 440.338719,369.978497 C440.820446,373.431953 441.221885,376.825174 441.563109,380.198317 M461.193488,334.018382 C454.869166,307.332523 446.294494,281.231049 435.561592,255.99437 C446.289797,230.744081 454.857778,204.629101 461.173416,177.930202 C512.216417,198.911955 541.942994,227.985236 541.942994,255.99437 C541.942994,284.003505 512.296705,313.076786 461.153344,334.058539" id="Shape"></path>
                </g>
            </g>
            </g>
        </symbol>

        
            <symbol id="netcore" viewBox="0 0 128 128">
            <g fill="#623697"><path d="M61.195 0h4.953c12.918.535 25.688 4.89 36.043 12.676 9.809 7.289 17.473 17.437 21.727 28.906 2.441 6.387 3.664 13.18 4.082 19.992v4.211c-.414 11.293-3.664 22.52-9.73 32.082-6.801 10.895-16.922 19.73-28.727 24.828A64.399 64.399 0 0165.082 128h-2.144c-11.735-.191-23.41-3.66-33.297-9.992-11.196-7.113-20.114-17.785-25.028-30.117C1.891 81.19.441 74.02 0 66.812v-4.957c.504-14.39 5.953-28.609 15.41-39.496C23.168 13.31 33.5 6.48 44.887 2.937 50.172 1.27 55.676.41 61.195 0M25.191 37.523c-.03 12.153-.011 24.305-.011 36.454 1.43.011 2.86.011 4.293.011-.075-10.433.101-20.863-.106-31.293.48.907.918 1.84 1.465 2.707C37.035 54.91 43.105 64.5 49.309 74c1.738-.023 3.476-.023 5.214.004-.003-12.16-.007-24.32.004-36.48a308.076 308.076 0 00-4.25-.012c.075 10.32-.136 20.64.125 30.949-6.507-10.352-13.101-20.645-19.695-30.945a370.85 370.85 0 00-5.516.007m38.844-.011c-.129 12.16-.004 24.32-.047 36.476 6.469-.015 12.938.024 19.41-.02a83.36 83.36 0 01.024-3.952c-5.012-.016-10.027.007-15.043-.02-.074-4.21-.004-8.426-.04-12.637 4.395-.078 8.79.012 13.18-.047-.011-1.277-.011-2.554-.019-3.832-4.387.141-8.773-.054-13.164.012.012-4.023.02-8.05.02-12.078 4.699 0 9.398-.02 14.093.012-.008-1.301 0-2.606.016-3.906-6.145-.016-12.29-.008-18.43-.008m22.602.054c.004 1.266.004 2.528.008 3.79 3.488-.04 6.972.109 10.46.035-.023 10.863.004 21.718-.011 32.574 1.46.043 2.93.035 4.39-.09-.12-5.992.118-11.988-.156-17.977.067-2.699-.07-5.394.117-8.09.106-2.14-.277-4.277-.035-6.417 3.516.047 7.035.015 10.55.015a59.774 59.774 0 01.075-3.832c-8.469-.105-16.937-.094-25.398-.008M13.55 69.094c-1.977.91-2.106 4.023-.149 5.027 1.72 1.18 4.305-.371 4.227-2.41.133-2.004-2.29-3.688-4.078-2.617m29.23 15.289c-4.277 3.469-4.226 11.195.5 14.25 2.668 1.695 6.102 1.344 8.922.215.012-.621.027-1.239.05-1.86-2.671 1.395-6.41 1.68-8.675-.61-2.965-3.237-2.297-9.269 1.613-11.476 2.211-1.164 4.907-.824 7.086.239-.007-.66-.004-1.32 0-1.98-3.097-1.099-6.922-1.04-9.496 1.222m17.207 2.71c-1.89.22-3.758 1.22-4.633 2.966-1.253 2.496-1.109 5.867.864 7.96 2.035 2.297 5.945 2.32 8.18.297 2.425-2.308 2.699-6.468.757-9.164-1.148-1.629-3.273-2.183-5.168-2.058m17.887 2.722c-1.66 2.883-1.332 7.25 1.598 9.211 2.183 1.22 4.933.832 7.074-.308-.004-.617.004-1.235.031-1.848-1.687 1.07-3.937 1.856-5.812.777-1.309-.722-1.704-2.257-1.914-3.625 2.875-.039 5.746-.082 8.625-.074-.075-1.828-.118-3.894-1.45-5.308-2.199-2.43-6.644-1.657-8.152 1.175m-8.414-2.336v12.008c.652 0 1.312 0 1.973.004.023-2.195-.04-4.394.023-6.594.016-1.27.527-2.558 1.484-3.414.801-.605 1.883-.27 2.801-.246-.012-.636-.02-1.27-.023-1.902-1.793-.398-3.336.652-4.242 2.117-.02-.633-.04-1.266-.051-1.894-.656-.024-1.313-.051-1.965-.079zm0 0"></path><path d="M58.758 89.223c1.652-.805 4.023-.41 4.945 1.3 1.05 1.887 1.027 4.383-.137 6.211-1.52 2.286-5.527 1.786-6.523-.742-1.008-2.258-.617-5.484 1.715-6.77zm0 0M79.04 92.414c.046-1.574 1.144-3.137 2.726-3.48.976-.164 2.097.007 2.773.793.672.714.813 1.714.98 2.64-2.16.012-4.32-.031-6.48.047zm0 0"></path></g>
            </symbol>

            
            <symbol id="csharp" viewBox="0 0 128 128">
            <path fill="#9B4F96" d="M115.4 30.7L67.1 2.9c-.8-.5-1.9-.7-3.1-.7-1.2 0-2.3.3-3.1.7l-48 27.9c-1.7 1-2.9 3.5-2.9 5.4v55.7c0 1.1.2 2.4 1 3.5l106.8-62c-.6-1.2-1.5-2.1-2.4-2.7z"></path><path fill="#68217A" d="M10.7 95.3c.5.8 1.2 1.5 1.9 1.9l48.2 27.9c.8.5 1.9.7 3.1.7 1.2 0 2.3-.3 3.1-.7l48-27.9c1.7-1 2.9-3.5 2.9-5.4V36.1c0-.9-.1-1.9-.6-2.8l-106.6 62z"></path><path fill="#fff" d="M85.3 76.1C81.1 83.5 73.1 88.5 64 88.5c-13.5 0-24.5-11-24.5-24.5s11-24.5 24.5-24.5c9.1 0 17.1 5 21.3 12.5l13-7.5c-6.8-11.9-19.6-20-34.3-20-21.8 0-39.5 17.7-39.5 39.5s17.7 39.5 39.5 39.5c14.6 0 27.4-8 34.2-19.8l-12.9-7.6zM97 66.2l.9-4.3h-4.2v-4.7h5.1L100 51h4.9l-1.2 6.1h3.8l1.2-6.1h4.8l-1.2 6.1h2.4v4.7h-3.3l-.9 4.3h4.2v4.7h-5.1l-1.2 6h-4.9l1.2-6h-3.8l-1.2 6h-4.8l1.2-6h-2.4v-4.7H97zm4.8 0h3.8l.9-4.3h-3.8l-.9 4.3z"></path>
            </symbol>
          
          
            
            <symbol id="h" viewBox="0 0 128 128">
            <path fill="#E44D26" d="M19.037 113.876L9.032 1.661h109.936l-10.016 112.198-45.019 12.48z"></path><path fill="#F16529" d="M64 116.8l36.378-10.086 8.559-95.878H64z"></path><path fill="#EBEBEB" d="M64 52.455H45.788L44.53 38.361H64V24.599H29.489l.33 3.692 3.382 37.927H64zm0 35.743l-.061.017-15.327-4.14-.979-10.975H33.816l1.928 21.609 28.193 7.826.063-.017z"></path><path fill="#fff" d="M63.952 52.455v13.763h16.947l-1.597 17.849-15.35 4.143v14.319l28.215-7.82.207-2.325 3.234-36.233.335-3.696h-3.708zm0-27.856v13.762h33.244l.276-3.092.628-6.978.329-3.692z"></path>
            </symbol>
            
            <symbol id="tailwindcss" viewBox="0 0 128 128">
            <path d="M64.004 25.602c-17.067 0-27.73 8.53-32 25.597 6.398-8.531 13.867-11.73 22.398-9.597 4.871 1.214 8.352 4.746 12.207 8.66C72.883 56.629 80.145 64 96.004 64c17.066 0 27.73-8.531 32-25.602-6.399 8.536-13.867 11.735-22.399 9.602-4.87-1.215-8.347-4.746-12.207-8.66-6.27-6.367-13.53-13.738-29.394-13.738zM32.004 64c-17.066 0-27.73 8.531-32 25.602C6.402 81.066 13.87 77.867 22.402 80c4.871 1.215 8.352 4.746 12.207 8.66 6.274 6.367 13.536 13.738 29.395 13.738 17.066 0 27.73-8.53 32-25.597-6.399 8.531-13.867 11.73-22.399 9.597-4.87-1.214-8.347-4.746-12.207-8.66C55.128 71.371 47.868 64 32.004 64zm0 0" fill="#38bdf8"></path>
            </symbol>
          
            <symbol id="js" viewBox="0 0 128 128">
            <path fill="#F0DB4F" d="M1.408 1.408h125.184v125.185H1.408z"></path><path fill="#323330" d="M116.347 96.736c-.917-5.711-4.641-10.508-15.672-14.981-3.832-1.761-8.104-3.022-9.377-5.926-.452-1.69-.512-2.642-.226-3.665.821-3.32 4.784-4.355 7.925-3.403 2.023.678 3.938 2.237 5.093 4.724 5.402-3.498 5.391-3.475 9.163-5.879-1.381-2.141-2.118-3.129-3.022-4.045-3.249-3.629-7.676-5.498-14.756-5.355l-3.688.477c-3.534.893-6.902 2.748-8.877 5.235-5.926 6.724-4.236 18.492 2.975 23.335 7.104 5.332 17.54 6.545 18.873 11.531 1.297 6.104-4.486 8.08-10.234 7.378-4.236-.881-6.592-3.034-9.139-6.949-4.688 2.713-4.688 2.713-9.508 5.485 1.143 2.499 2.344 3.63 4.26 5.795 9.068 9.198 31.76 8.746 35.83-5.176.165-.478 1.261-3.666.38-8.581zM69.462 58.943H57.753l-.048 30.272c0 6.438.333 12.34-.714 14.149-1.713 3.558-6.152 3.117-8.175 2.427-2.059-1.012-3.106-2.451-4.319-4.485-.333-.584-.583-1.036-.667-1.071l-9.52 5.83c1.583 3.249 3.915 6.069 6.902 7.901 4.462 2.678 10.459 3.499 16.731 2.059 4.082-1.189 7.604-3.652 9.448-7.401 2.666-4.915 2.094-10.864 2.07-17.444.06-10.735.001-21.468.001-32.237z"></path>
            </symbol>
          <symbol id="portafolio" viewBox="0 0 124 124" xmlns="http://www.w3.org/2000/svg">
          <path d="M20.501 6.028V6h-.02A10.28 10.28 0 0 0 4.519 6H4.5v.028a10.262 10.262 0 0 0 0 12.944V19h.02a10.28 10.28 0 0 0 15.962 0h.021v-.028a10.262 10.262 0 0 0 0-12.944zM13 6V3.272A4.533 4.533 0 0 1 15.54 6zm2.935 1a16.827 16.827 0 0 1 .853 5H13V7zM12 3.272V6H9.46A4.533 4.533 0 0 1 12 3.272zM12 7v5H8.212a16.827 16.827 0 0 1 .853-5zm-4.787 5H3.226a9.234 9.234 0 0 1 1.792-5h2.984a17.952 17.952 0 0 0-.79 5zm0 1a17.952 17.952 0 0 0 .789 5H5.018a9.234 9.234 0 0 1-1.792-5zm1 0H12v5H9.065a16.827 16.827 0 0 1-.853-5zM12 19v2.728A4.533 4.533 0 0 1 9.46 19zm1 2.728V19h2.54A4.533 4.533 0 0 1 13 21.728zM13 18v-5h3.788a16.827 16.827 0 0 1-.853 5zm4.787-5h3.987a9.234 9.234 0 0 1-1.792 5h-2.984a17.952 17.952 0 0 0 .79-5zm0-1a17.952 17.952 0 0 0-.789-5h2.984a9.234 9.234 0 0 1 1.792 5zm1.352-6h-2.501a8.524 8.524 0 0 0-1.441-2.398A9.306 9.306 0 0 1 19.139 6zM9.803 3.602A8.524 8.524 0 0 0 8.363 6H5.86a9.306 9.306 0 0 1 3.942-2.398zM5.861 19h2.501a8.524 8.524 0 0 0 1.441 2.398A9.306 9.306 0 0 1 5.861 19zm9.336 2.398A8.524 8.524 0 0 0 16.637 19h2.502a9.306 9.306 0 0 1-3.942 2.398z"/><path fill="none" d="M0 0h24v24H0z"/>
          </symbol>   
</svg>
          